<svg width="104" height="104" viewBox="0 0 104 104" fill="none" xmlns="http://www.w3.org/2000/svg">
<path d="M53.3691 46.8123C49.7137 46.7741 46.1515 45.6609 43.1308 43.6129C40.1101 41.565 37.7661 38.6739 36.3939 35.3036C35.0216 31.9332 34.6825 28.2344 35.4191 24.6728C36.1558 21.1111 37.9353 17.8459 40.5337 15.2881C43.132 12.7304 46.4331 10.9946 50.0211 10.2991C53.6092 9.6037 57.3239 9.97977 60.6976 11.38C64.0712 12.7802 66.953 15.142 68.9801 18.168C71.0071 21.194 72.0889 24.7489 72.0891 28.3852C72.0547 33.2954 70.0652 37.992 66.5564 41.4459C63.0475 44.8998 58.3055 46.8296 53.3691 46.8123ZM53.3691 16.4236C50.9994 16.4619 48.694 17.1958 46.7423 18.5331C44.7906 19.8705 43.2797 21.7517 42.3994 23.9405C41.5191 26.1293 41.3086 28.528 41.7944 30.8354C42.2802 33.1427 43.4405 35.2559 45.1298 36.9094C46.819 38.5629 48.9618 39.683 51.2889 40.129C53.616 40.5751 56.0238 40.3271 58.2097 39.4164C60.3957 38.5056 62.2623 36.9726 63.5752 35.01C64.8881 33.0474 65.5888 30.7426 65.5891 28.3852C65.5548 25.1897 64.2501 22.1377 61.9602 19.8963C59.6704 17.6549 56.5816 16.4064 53.3691 16.4236Z" fill="#736958"/>
<path d="M53.3675 46.8123C49.7122 46.7741 46.1499 45.6609 43.1293 43.6129C40.1086 41.565 37.7646 38.6739 36.3923 35.3036C35.0201 31.9332 34.6809 28.2344 35.4176 24.6728C36.1542 21.1111 37.9338 17.8459 40.5321 15.2881C43.1305 12.7304 46.4315 10.9946 50.0196 10.2991C53.6077 9.6037 57.3224 9.97977 60.696 11.38C64.0697 12.7802 66.9515 15.142 68.9785 18.168C71.0056 21.194 72.0873 24.7489 72.0875 28.3852C72.0532 33.2954 70.0636 37.992 66.5548 41.4459C63.046 44.8998 58.3039 46.8296 53.3675 46.8123ZM53.3675 16.4236C50.9979 16.4619 48.6924 17.1958 46.7408 18.5331C44.7891 19.8705 43.2782 21.7517 42.3979 23.9405C41.5176 26.1293 41.3071 28.528 41.7928 30.8354C42.2786 33.1427 43.439 35.2559 45.1282 36.9094C46.8175 38.5629 48.9602 39.683 51.2874 40.129C53.6145 40.5751 56.0223 40.3271 58.2082 39.4164C60.3941 38.5056 62.2608 36.9726 63.5737 35.01C64.8866 33.0474 65.5872 30.7426 65.5875 28.3852C65.5532 25.1897 64.2485 22.1377 61.9587 19.8963C59.6689 17.6549 56.5801 16.4064 53.3675 16.4236ZM64.71 51.1443C50.2948 48.6492 35.4547 50.9202 22.46 57.61C21.5376 58.1195 20.7738 58.8715 20.2522 59.7838C19.7306 60.6961 19.4712 61.7335 19.5025 62.7826V74.2915C19.5025 75.1489 19.8449 75.9712 20.4544 76.5774C21.0639 77.1837 21.8906 77.5243 22.7525 77.5243C23.6145 77.5243 24.4411 77.1837 25.0506 76.5774C25.6601 75.9712 26.0025 75.1489 26.0025 74.2915V63.2028C38.0525 57.1886 51.7555 55.2803 65.0025 57.7717L64.71 51.1443Z" fill="#736958"/>
<path d="M100.75 65.2059H78.975V60.4213C78.975 59.5639 78.6326 58.7416 78.0231 58.1354C77.4136 57.5291 76.5869 57.1885 75.725 57.1885C74.863 57.1885 74.0364 57.5291 73.4269 58.1354C72.8174 58.7416 72.475 59.5639 72.475 60.4213V65.2059H48.75C47.888 65.2059 47.0614 65.5465 46.4519 66.1528C45.8424 66.7591 45.5 67.5814 45.5 68.4388V100.767C45.5 101.625 45.8424 102.447 46.4519 103.053C47.0614 103.659 47.888 104 48.75 104H100.75C101.612 104 102.439 103.659 103.048 103.053C103.658 102.447 104 101.625 104 100.767V68.4388C104 67.5814 103.658 66.7591 103.048 66.1528C102.439 65.5465 101.612 65.2059 100.75 65.2059ZM97.5 97.5343H52V71.6716H72.475V72.9971C72.475 73.8545 72.8174 74.6767 73.4269 75.283C74.0364 75.8893 74.863 76.2299 75.725 76.2299C76.5869 76.2299 77.4136 75.8893 78.0231 75.283C78.6326 74.6767 78.975 73.8545 78.975 72.9971V71.6716H97.5V97.5343Z" fill="#736958"/>
<path d="M64.3825 82.7285H83.7525V87.2545H64.3825V82.7285ZM28.73 33.654C19.7322 33.8037 10.8904 36.0163 2.8925 40.1197C2.02268 40.5767 1.29408 41.2603 0.784598 42.0973C0.27512 42.9344 0.00392225 43.8934 0 44.8719V54.8937C0 55.7511 0.34241 56.5734 0.951903 57.1797C1.5614 57.786 2.38805 58.1266 3.25 58.1266C4.11195 58.1266 4.9386 57.786 5.5481 57.1797C6.15759 56.5734 6.5 55.7511 6.5 54.8937V45.5185C14.1417 41.7349 22.6023 39.8807 31.135 40.1197C30.0186 38.0935 29.2083 35.915 28.73 33.654ZM101.107 40.0873C93.9343 36.3444 86.0508 34.1416 77.9675 33.6217C77.4915 35.8786 76.6925 38.056 75.595 40.0873C83.21 40.2686 90.6903 42.1233 97.5 45.5185V54.8937C97.5 55.7511 97.8424 56.5734 98.4519 57.1797C99.0614 57.786 99.888 58.1266 100.75 58.1266C101.612 58.1266 102.439 57.786 103.048 57.1797C103.658 56.5734 104 55.7511 104 54.8937V44.8719C104.002 43.8879 103.734 42.9221 103.224 42.0788C102.714 41.2356 101.982 40.5469 101.107 40.0873ZM28.145 28.3845V26.2185C25.599 25.8795 23.2825 24.5769 21.6777 22.5818C20.073 20.5867 19.3035 18.0528 19.5297 15.5076C19.7558 12.9624 20.9601 10.602 22.8918 8.91777C24.8234 7.23356 27.3337 6.35529 29.9 6.46581C32.5693 6.461 35.1349 7.49342 37.05 9.34303C38.7397 7.95673 40.5955 6.78398 42.575 5.85157C40.3637 3.32238 37.4339 1.51904 34.1717 0.679251C30.9096 -0.160539 27.4681 0.00263632 24.301 1.14727C21.1339 2.2919 18.3899 4.36427 16.4305 7.09121C14.4711 9.81816 13.3884 13.0717 13.325 16.423C13.3932 20.5246 14.9961 24.4537 17.8207 27.4427C20.6453 30.4317 24.4886 32.266 28.6 32.5871C28.3243 31.2023 28.172 29.7959 28.145 28.3845ZM74.0025 0.00012956C71.7691 0.000618646 69.5581 0.444018 67.499 1.3044C65.4399 2.16478 63.5738 3.42489 62.01 5.01103C64.2071 5.80298 66.2848 6.89071 68.185 8.24387C69.7022 7.1962 71.4769 6.57777 73.3197 6.45452C75.1626 6.33127 77.0045 6.70782 78.649 7.54403C80.2936 8.38023 81.6793 9.64474 82.6581 11.2027C83.637 12.7607 84.1725 14.5537 84.2075 16.3906C84.187 18.2774 83.6298 20.1199 82.6002 21.7047C81.5707 23.2895 80.1109 24.5519 78.39 25.3456C78.5207 26.3425 78.5859 27.3468 78.585 28.3521C78.5763 29.6516 78.4676 30.9485 78.26 32.2315C81.8005 31.3261 84.9408 29.2818 87.1921 26.4168C89.4433 23.5518 90.6793 20.0269 90.7075 16.3906C90.6646 12.0176 88.8836 7.83913 85.7536 4.76804C82.6236 1.69696 78.3989 -0.0171617 74.0025 0.00012956Z" fill="#736958"/>
</svg>
