<svg width="89" height="89" viewBox="0 0 89 89" fill="none" xmlns="http://www.w3.org/2000/svg">
<path d="M44.5 89C69.0767 89 89 69.0767 89 44.5C89 19.9233 69.0767 0 44.5 0C19.9234 0 0 19.9233 0 44.5C0 69.0767 19.9234 89 44.5 89Z" fill="#9F9685"/>
<path d="M40.0906 61.4753C39.0895 61.477 38.115 61.1531 37.314 60.5525L37.2643 60.5153L26.8062 52.5151C26.3212 52.1441 25.914 51.681 25.608 51.1525C25.3019 50.6239 25.1031 50.0403 25.0228 49.4348C24.9425 48.8294 24.9823 48.2141 25.14 47.6241C25.2976 47.034 25.57 46.4808 25.9416 45.9962C26.3132 45.5115 26.7767 45.1048 27.3055 44.7993C27.8344 44.4938 28.4183 44.2956 29.0238 44.216C29.6293 44.1363 30.2446 44.1768 30.8345 44.3351C31.4243 44.4934 31.9772 44.7663 32.4615 45.1384L39.2354 50.333L55.2425 29.4499C55.9922 28.4722 57.0995 27.8322 58.321 27.6709C59.5424 27.5095 60.778 27.84 61.7558 28.5896L61.7571 28.5906L61.6578 28.7286L61.7599 28.5906C62.7367 29.3413 63.3757 30.4489 63.5368 31.6702C63.698 32.8916 63.3679 34.127 62.6192 35.1052L43.7913 59.6573C43.3557 60.2231 42.7957 60.6808 42.1546 60.9951C41.5136 61.3094 40.8087 61.4719 40.0947 61.4698L40.0906 61.4753Z" fill="white"/>
</svg>
