<svg width="35" height="35" viewBox="0 0 35 35" fill="none" xmlns="http://www.w3.org/2000/svg">
<path d="M7.47055 9.29395H5.64704C4.67978 9.29395 3.75214 9.67819 3.06819 10.3621C2.38424 11.0461 2 11.9737 2 12.941V29.3526C2 30.3199 2.38424 31.2475 3.06819 31.9315C3.75214 32.6154 4.67978 32.9997 5.64704 32.9997H22.0587C23.026 32.9997 23.9536 32.6154 24.6375 31.9315C25.3215 31.2475 25.7057 30.3199 25.7057 29.3526V27.5291" stroke="#C5B279" stroke-width="3" stroke-linecap="round" stroke-linejoin="round"/>
<path d="M23.8818 5.64723L29.3524 11.1178M31.8779 8.53751C32.5961 7.81932 32.9996 6.84525 32.9996 5.82958C32.9996 4.81391 32.5961 3.83984 31.8779 3.12166C31.1598 2.40347 30.1857 2 29.17 2C28.1543 2 27.1803 2.40347 26.4621 3.12166L11.1172 18.4119V23.8824H16.5877L31.8779 8.53751Z" stroke="#C5B279" stroke-width="3" stroke-linecap="round" stroke-linejoin="round"/>
</svg>
